<svg width="98" height="21" viewBox="0 0 98 21" fill="none" xmlns="http://www.w3.org/2000/svg">
<path d="M6.31678 20.1265H10.6652V4.38792H16.6408V0.48835C10.8897 0.48835 6.06429 0.48835 0.341183 0.48835V4.38792H6.31678V20.1265ZM36.1733 19.7898L30.7868 13.2812C34.5461 11.9346 35.3036 9.66216 35.3317 7.1092C35.3317 3.6585 32.8068 0.48835 28.0656 0.48835C24.8954 0.48835 21.9497 0.48835 18.7515 0.48835V20.1265H23.128V13.6739H26.2981L31.3199 20.1265H36.1733V19.7898ZM28.0656 4.24765C30.1135 4.24765 30.9832 5.87481 31.0113 7.22142C31.0113 8.45581 30.1416 9.97075 28.1217 9.97075H23.128V4.24765H28.0656ZM42.8673 20.1265V0.48835H38.5189V20.1265H42.8673ZM51.0465 4.64041H55.928C58.004 4.64041 59.0701 6.04313 59.0701 7.61418C59.0701 9.18523 58.0321 10.5599 55.928 10.5599H51.0465V4.64041ZM55.928 14.5717C60.9217 14.5156 63.4466 11.4576 63.4466 7.53002C63.4466 3.74267 60.9497 0.48835 55.928 0.48835C52.814 0.48835 49.8121 0.48835 46.67 0.48835V20.1265H51.0465V14.5717H55.928Z" fill="#0D0D0D"/>
<path d="M64.8835 4.24765H74.0012L64.4066 17.8541V20.1265H80.1171V16.0305H70.4663L79.8926 2.39605V0.48835H64.8835V4.24765ZM81.9386 4.24765H91.0563L81.4617 17.8541V20.1265H97.1722V16.0305H87.5215L96.9478 2.39605V0.48835H81.9386V4.24765Z" fill="#2ABAFF"/>
</svg>
